ModelForces
version=1
nRows=4
nColumns=202
inDegrees=no

This file contains the forces exerted on a model during a simulation.

A force is a generalized force, meaning that it can be either a force (N) or a torque (Nm).

Units are S.I. units (second, meters, Newtons, ...)
Angles are in degrees.

endheader
time	glut_med1_r	glut_med2_r	glut_med3_r	glut_min1_r	glut_min2_r	glut_min3_r	semimem_r	semiten_r	bifemlh_r	bifemsh_r	sar_r	add_long_r	add_brev_r	add_mag1_r	add_mag2_r	add_mag3_r	tfl_r	pect_r	grac_r	glut_max1_r	glut_max2_r	glut_max3_r	iliacus_r	psoas_r	quad_fem_r	gem_r	peri_r	rect_fem_r	vas_med_r	vas_int_r	vas_lat_r	med_gas_r	lat_gas_r	soleus_r	tib_post_r	flex_dig_r	flex_hal_r	tib_ant_r	per_brev_r	per_long_r	per_tert_r	ext_dig_r	ext_hal_r	glut_med1_l	glut_med2_l	glut_med3_l	glut_min1_l	glut_min2_l	glut_min3_l	semimem_l	semiten_l	bifemlh_l	bifemsh_l	sar_l	add_long_l	add_brev_l	add_mag1_l	add_mag2_l	add_mag3_l	tfl_l	pect_l	grac_l	glut_max1_l	glut_max2_l	glut_max3_l	iliacus_l	psoas_l	quad_fem_l	gem_l	peri_l	rect_fem_l	vas_med_l	vas_int_l	vas_lat_l	med_gas_l	lat_gas_l	soleus_l	tib_post_l	flex_dig_l	flex_hal_l	tib_ant_l	per_brev_l	per_long_l	per_tert_l	ext_dig_l	ext_hal_l	ercspn_r	ercspn_l	intobl_r	intobl_l	extobl_r	extobl_l	femur_lat_meniscii_l.femur_lat_l.force.X	femur_lat_meniscii_l.femur_lat_l.force.Y	femur_lat_meniscii_l.femur_lat_l.force.Z	femur_lat_meniscii_l.femur_lat_l.torque.X	femur_lat_meniscii_l.femur_lat_l.torque.Y	femur_lat_meniscii_l.femur_lat_l.torque.Z	femur_lat_meniscii_l.meniscus_lat_l.force.X	femur_lat_meniscii_l.meniscus_lat_l.force.Y	femur_lat_meniscii_l.meniscus_lat_l.force.Z	femur_lat_meniscii_l.meniscus_lat_l.torque.X	femur_lat_meniscii_l.meniscus_lat_l.torque.Y	femur_lat_meniscii_l.meniscus_lat_l.torque.Z	femur_med_meniscii_l.femur_med_l.force.X	femur_med_meniscii_l.femur_med_l.force.Y	femur_med_meniscii_l.femur_med_l.force.Z	femur_med_meniscii_l.femur_med_l.torque.X	femur_med_meniscii_l.femur_med_l.torque.Y	femur_med_meniscii_l.femur_med_l.torque.Z	femur_med_meniscii_l.meniscus_med_l.force.X	femur_med_meniscii_l.meniscus_med_l.force.Y	femur_med_meniscii_l.meniscus_med_l.force.Z	femur_med_meniscii_l.meniscus_med_l.torque.X	femur_med_meniscii_l.meniscus_med_l.torque.Y	femur_med_meniscii_l.meniscus_med_l.torque.Z	femur_lat_meniscii_r.femur_lat_r.force.X	femur_lat_meniscii_r.femur_lat_r.force.Y	femur_lat_meniscii_r.femur_lat_r.force.Z	femur_lat_meniscii_r.femur_lat_r.torque.X	femur_lat_meniscii_r.femur_lat_r.torque.Y	femur_lat_meniscii_r.femur_lat_r.torque.Z	femur_lat_meniscii_r.meniscus_lat_r.force.X	femur_lat_meniscii_r.meniscus_lat_r.force.Y	femur_lat_meniscii_r.meniscus_lat_r.force.Z	femur_lat_meniscii_r.meniscus_lat_r.torque.X	femur_lat_meniscii_r.meniscus_lat_r.torque.Y	femur_lat_meniscii_r.meniscus_lat_r.torque.Z	femur_med_meniscii_r.femur_med_r.force.X	femur_med_meniscii_r.femur_med_r.force.Y	femur_med_meniscii_r.femur_med_r.force.Z	femur_med_meniscii_r.femur_med_r.torque.X	femur_med_meniscii_r.femur_med_r.torque.Y	femur_med_meniscii_r.femur_med_r.torque.Z	femur_med_meniscii_r.meniscus_med_r.force.X	femur_med_meniscii_r.meniscus_med_r.force.Y	femur_med_meniscii_r.meniscus_med_r.force.Z	femur_med_meniscii_r.meniscus_med_r.torque.X	femur_med_meniscii_r.meniscus_med_r.torque.Y	femur_med_meniscii_r.meniscus_med_r.torque.Z	femur_med_tibia_l.tibia_upper_l.force.X	femur_med_tibia_l.tibia_upper_l.force.Y	femur_med_tibia_l.tibia_upper_l.force.Z	femur_med_tibia_l.tibia_upper_l.torque.X	femur_med_tibia_l.tibia_upper_l.torque.Y	femur_med_tibia_l.tibia_upper_l.torque.Z	femur_med_tibia_l.femur_med_l.force.X	femur_med_tibia_l.femur_med_l.force.Y	femur_med_tibia_l.femur_med_l.force.Z	femur_med_tibia_l.femur_med_l.torque.X	femur_med_tibia_l.femur_med_l.torque.Y	femur_med_tibia_l.femur_med_l.torque.Z	femur_lat_tibia_l.tibia_upper_l.force.X	femur_lat_tibia_l.tibia_upper_l.force.Y	femur_lat_tibia_l.tibia_upper_l.force.Z	femur_lat_tibia_l.tibia_upper_l.torque.X	femur_lat_tibia_l.tibia_upper_l.torque.Y	femur_lat_tibia_l.tibia_upper_l.torque.Z	femur_lat_tibia_l.femur_lat_l.force.X	femur_lat_tibia_l.femur_lat_l.force.Y	femur_lat_tibia_l.femur_lat_l.force.Z	femur_lat_tibia_l.femur_lat_l.torque.X	femur_lat_tibia_l.femur_lat_l.torque.Y	femur_lat_tibia_l.femur_lat_l.torque.Z	femur_med_tibia_r.tibia_upper_r.force.X	femur_med_tibia_r.tibia_upper_r.force.Y	femur_med_tibia_r.tibia_upper_r.force.Z	femur_med_tibia_r.tibia_upper_r.torque.X	femur_med_tibia_r.tibia_upper_r.torque.Y	femur_med_tibia_r.tibia_upper_r.torque.Z	femur_med_tibia_r.femur_med_r.force.X	femur_med_tibia_r.femur_med_r.force.Y	femur_med_tibia_r.femur_med_r.force.Z	femur_med_tibia_r.femur_med_r.torque.X	femur_med_tibia_r.femur_med_r.torque.Y	femur_med_tibia_r.femur_med_r.torque.Z	femur_lat_tibia_r.tibia_upper_r.force.X	femur_lat_tibia_r.tibia_upper_r.force.Y	femur_lat_tibia_r.tibia_upper_r.force.Z	femur_lat_tibia_r.tibia_upper_r.torque.X	femur_lat_tibia_r.tibia_upper_r.torque.Y	femur_lat_tibia_r.tibia_upper_r.torque.Z	femur_lat_tibia_r.femur_lat_r.force.X	femur_lat_tibia_r.femur_lat_r.force.Y	femur_lat_tibia_r.femur_lat_r.force.Z	femur_lat_tibia_r.femur_lat_r.torque.X	femur_lat_tibia_r.femur_lat_r.torque.Y	femur_lat_tibia_r.femur_lat_r.torque.Z	aACL_R	pACL_R	aPCL_R	pPCL_R	aMCL_R	aLCL_R	aPCL_L	pPCL_L	aMCL_L	aLCL_L	ground_prescribedForce_0_fx	ground_prescribedForce_0_fy	ground_prescribedForce_0_fz
      0.72299779	      7.54837767	      5.66604738	      6.06503484	      2.65906719	      3.17908858	      3.19292202	      8.79198672	      4.09434937	      7.87195576	      7.23927405	      1.51297516	      5.61357590	      4.14126412	      2.91907422	      2.45385210	      3.98768087	      4.31053413	      2.23882522	      1.55391203	      3.65626372	      5.55629271	      4.14763628	     22.64813769	     12.96745670	      3.62685751	      2.85440300	      4.09048422	     10.75667117	      6.71841651	      6.94070103	      8.88994128	      5.17119416	      2.83279351	      8.79772158	     13.13054635	      2.91222744	      2.46625389	     17.46566246	      4.05151153	      8.26567848	     11.48237296	      9.26059144	      2.41589488	      7.54837767	      5.66604738	      6.06503484	      2.65906719	      3.17908858	      3.19292202	      8.74587412	      4.08346327	      7.68341958	      7.21638561	      1.51981796	      5.61357590	      4.14126412	      2.91907422	      2.45385210	      3.98768087	      4.09715961	      2.23882522	      1.55878025	      3.65626372	      5.55629271	      4.14763628	     22.64813769	     12.96745670	      3.62685751	      2.85440300	      4.09048422	     10.66793779	      6.59303335	      7.56274435	      8.13199137	     13.95559047	      6.47990442	     31.09036409	     42.36077740	      2.60033220	      2.84799937	      8.45237569	      4.33439621	     12.44766581	      2.00597815	      5.35441635	      1.69993304	     25.00782891	     25.00782891	      9.00063635	      9.00063635	     26.80518069	     26.80518069	      2.76307435	     50.99597937	     -9.56042239	      5.21997485	     -0.02578839	      1.48581788	     -2.76307435	    -50.99597937	      9.56042239	     -1.74637766	      0.02558040	     -0.48301696	     -3.31599387	     20.97615968	     -3.40468921	      0.94473225	     -0.02138609	     -1.00501789	      3.31599387	    -20.97615968	      3.40468921	      0.28075727	      0.00368718	     -0.29758878	     21.32212191	     67.03700249	     15.21265188	     -7.95036774	      0.48678318	      8.99780023	    -21.32212191	    -67.03700249	    -15.21265188	      2.29416760	     -0.57628391	     -0.67564502	     55.19383637	     92.32517439	      6.89448330	     -0.85104840	     -1.23251408	     23.31862537	    -55.19383637	    -92.32517439	     -6.89448330	     -1.51328350	      1.04560770	     -1.88805461	      0.00000000	      0.00000000	      0.00000000	      0.00000000	      0.00000000	      0.00000000	      0.00000000	      0.00000000	      0.00000000	      0.00000000	      0.00000000	      0.00000000	      0.00000000	      0.00000000	      0.00000000	      0.00000000	      0.00000000	      0.00000000	      0.00000000	      0.00000000	      0.00000000	      0.00000000	      0.00000000	      0.00000000	      0.00000000	      0.00000000	      0.00000000	      0.00000000	      0.00000000	      0.00000000	      0.00000000	      0.00000000	      0.00000000	      0.00000000	      0.00000000	      0.00000000	      0.00000000	      0.00000000	      0.00000000	      0.00000000	      0.00000000	      0.00000000	      0.00000000	      0.00000000	      0.00000000	      0.00000000	      0.00000000	      0.00000000	     15.92145444	     42.04473293	      0.00000000	      0.00000000	     40.21739602	      0.00000000	      0.00000000	      0.00000000	      0.00000001	      0.00000000	    110.00000000	      0.00000000	      0.00000000
      0.72675351	      7.54824281	      5.66595445	      6.06493413	      2.65902542	      3.17904341	      3.19286509	      8.80114249	      4.10176664	      7.88974639	      7.31762889	      1.55483255	      5.61348275	      4.14119966	      2.91902669	      2.45381120	      3.98760721	      4.31594208	      2.23878983	      1.56760632	      3.65620381	      5.55620138	      4.14756685	     22.64796921	     12.96726730	      3.62679930	      2.85437577	      4.09037469	     10.77651103	      6.76882799	      6.99763178	      8.95749011	      5.22777834	      2.86741385	      8.87105409	     13.14909411	      2.92823739	      2.42764869	     17.43952847	      4.06179669	      8.30214548	     11.47246433	      9.30482087	      2.45015799	      7.54824281	      5.66595445	      6.06493413	      2.65902542	      3.17904341	      3.19286509	      8.74567739	      4.08339101	      7.68325603	      7.21626973	      1.51979420	      5.61348275	      4.14119966	      2.91902669	      2.45381120	      3.98760721	      4.09711407	      2.23878983	      1.55875545	      3.65620381	      5.55620138	      4.14756685	     22.64796921	     12.96726730	      3.62679930	      2.85437577	      4.09037469	     10.66771523	      6.59292276	      7.56261503	      8.13185303	     13.95507424	      6.47966425	     31.08953423	     42.36045388	      2.59738469	      2.84660472	      8.45220829	      4.33429565	     12.44741726	      2.00594876	      5.35580074	      1.70031440	     25.00743523	     25.00743523	      9.00048204	      9.00048204	     26.80504209	     26.80504209	      2.76307435	     50.99597937	     -9.56042239	      5.21997485	     -0.02578839	      1.48581788	     -2.76307435	    -50.99597937	      9.56042239	     -1.74637766	      0.02558040	     -0.48301696	     -3.31599387	     20.97615968	     -3.40468921	      0.94473225	     -0.02138609	     -1.00501789	      3.31599387	    -20.97615968	      3.40468921	      0.28075727	      0.00368718	     -0.29758878	     22.16203615	     69.54421999	     15.89637481	     -8.29597749	      0.50584664	      9.35201660	    -22.16203615	    -69.54421999	    -15.89637481	      2.38396814	     -0.59899993	     -0.70221817	     57.35725206	     96.19306136	      7.39722061	     -0.97666711	     -1.28110458	     24.23268371	    -57.35725206	    -96.19306136	     -7.39722061	     -1.56921069	      1.08650940	     -1.96171604	      0.00000000	      0.00000000	      0.00000000	      0.00000000	      0.00000000	      0.00000000	      0.00000000	      0.00000000	      0.00000000	      0.00000000	      0.00000000	      0.00000000	      0.00000000	      0.00000000	      0.00000000	      0.00000000	      0.00000000	      0.00000000	      0.00000000	      0.00000000	      0.00000000	      0.00000000	      0.00000000	      0.00000000	      0.00000000	      0.00000000	      0.00000000	      0.00000000	      0.00000000	      0.00000000	      0.00000000	      0.00000000	      0.00000000	      0.00000000	      0.00000000	      0.00000000	      0.00000000	      0.00000000	      0.00000000	      0.00000000	      0.00000000	      0.00000000	      0.00000000	      0.00000000	      0.00000000	      0.00000000	      0.00000000	      0.00000000	     15.50504472	     41.66345820	      0.00000000	      0.00000000	     39.22014834	      0.00000000	      0.00000000	      0.00000000	      0.00000001	      0.00000000	    110.00000000	      0.00000000	      0.00000000
      0.72959830	      7.54814491	      5.66588699	      6.06486102	      2.65899511	      3.17901062	      3.19282376	      8.77773819	      4.09108977	      7.87894616	      7.25090345	      1.51648603	      5.61341513	      4.14115287	      2.91899219	      2.45378151	      3.98755375	      4.31288997	      2.23876414	      1.55478408	      3.65616031	      5.55613508	      4.14751646	     22.64784691	     12.96712981	      3.62675705	      2.85435601	      4.09029518	     10.75655647	      6.71655598	      6.94603740	      8.90334896	      5.23131819	      2.87682804	      8.88498927	     13.17339327	      2.93776018	      2.39972756	     17.43388676	      4.06331729	      8.32215900	     11.47270685	      9.35271641	      2.47661465	      7.54814491	      5.66588699	      6.06486102	      2.65899511	      3.17901062	      3.19282376	      8.74553457	      4.08333856	      7.68313730	      7.21618561	      1.51977695	      5.61341513	      4.14115287	      2.91899219	      2.45378151	      3.98755375	      4.09708101	      2.23876414	      1.55873746	      3.65616031	      5.55613508	      4.14751646	     22.64784691	     12.96712981	      3.62675705	      2.85435601	      4.09029518	     10.66755368	      6.59284247	      7.56252116	      8.13175262	     13.95469934	      6.47948983	     31.08893179	     42.36021902	      2.59513993	      2.84554710	      8.45208677	      4.33422265	     12.44723681	      2.00592743	      5.35685776	      1.70060505	     25.00714945	     25.00714945	      9.00037002	      9.00037002	     26.80494147	     26.80494147	      2.76307435	     50.99597937	     -9.56042239	      5.21997485	     -0.02578839	      1.48581788	     -2.76307435	    -50.99597937	      9.56042239	     -1.74637766	      0.02558040	     -0.48301696	     -3.31599387	     20.97615968	     -3.40468921	      0.94473225	     -0.02138609	     -1.00501789	      3.31599387	    -20.97615968	      3.40468921	      0.28075727	      0.00368718	     -0.29758878	     21.44637191	     66.85546723	     15.26886230	     -7.97027258	      0.48884320	      9.04997861	    -21.44637191	    -66.85546723	    -15.26886230	      2.29181855	     -0.57882906	     -0.68011573	     55.52355743	     93.00524915	      6.94813264	     -0.85838268	     -1.23993191	     23.45815452	    -55.52355743	    -93.00524915	     -6.94813264	     -1.52442866	      1.05186583	     -1.89937002	      0.00000000	      0.00000000	      0.00000000	      0.00000000	      0.00000000	      0.00000000	      0.00000000	      0.00000000	      0.00000000	      0.00000000	      0.00000000	      0.00000000	      0.00000000	      0.00000000	      0.00000000	      0.00000000	      0.00000000	      0.00000000	      0.00000000	      0.00000000	      0.00000000	      0.00000000	      0.00000000	      0.00000000	      0.00000000	      0.00000000	      0.00000000	      0.00000000	      0.00000000	      0.00000000	      0.00000000	      0.00000000	      0.00000000	      0.00000000	      0.00000000	      0.00000000	      0.00000000	      0.00000000	      0.00000000	      0.00000000	      0.00000000	      0.00000000	      0.00000000	      0.00000000	      0.00000000	      0.00000000	      0.00000000	      0.00000000	     15.87835407	     41.99796113	      0.00000000	      0.00000000	     40.07766241	      0.00000000	      0.00000000	      0.00000000	      0.00000001	      0.00000000	    110.00000000	      0.00000000	      0.00000000
      0.73244308	      7.54805053	      5.66582195	      6.06479054	      2.65896588	      3.17897901	      3.19278392	      8.77596955	      4.09204857	      7.88512620	      7.26823494	      1.52225657	      5.61334995	      4.14110777	      2.91895893	      2.45375288	      3.98750220	      4.31511686	      2.23873938	      1.55748460	      3.65611838	      5.55607117	      4.14746787	     22.64772900	     12.96699727	      3.62671632	      2.85433696	      4.09021852	     10.76113948	      6.72652116	      6.96133321	      8.92353856	      5.26752521	      2.90160836	      8.93619297	     13.21190341	      2.94605161	      2.37482141	     17.41645618	      4.06372323	      8.34067258	     11.46207728	      9.40903241	      2.50018193	      7.54805053	      5.66582195	      6.06479054	      2.65896588	      3.17897901	      3.19278392	      8.74539690	      4.08328799	      7.68302284	      7.21610452	      1.51976032	      5.61334995	      4.14110777	      2.91895893	      2.45375288	      3.98750220	      4.09704914	      2.23873938	      1.55872011	      3.65611838	      5.55607117	      4.14746787	     22.64772900	     12.96699727	      3.62671632	      2.85433696	      4.09021852	     10.66739794	      6.59276508	      7.56243067	      8.13165581	     13.95433779	      6.47932163	     31.08835101	     42.35999261	      2.59288452	      2.84448835	      8.45196962	      4.33415227	     12.44706283	      2.00590687	      5.35792188	      1.70089719	     25.00687394	     25.00687394	      9.00026204	      9.00026204	     26.80484447	     26.80484447	      2.76307435	     50.99597937	     -9.56042239	      5.21997485	     -0.02578839	      1.48581788	     -2.76307435	    -50.99597937	      9.56042239	     -1.74637766	      0.02558040	     -0.48301696	     -3.31599387	     20.97615968	     -3.40468921	      0.94473225	     -0.02138609	     -1.00501789	      3.31599387	    -20.97615968	      3.40468921	      0.28075727	      0.00368718	     -0.29758878	     21.65523521	     67.54975266	     15.44695088	     -8.06120345	      0.49359181	      9.13795060	    -21.65523521	    -67.54975266	    -15.44695088	      2.31626247	     -0.58449758	     -0.68652796	     56.23738743	     94.32219225	      7.10872775	     -0.89663474	     -1.25594693	     23.75979857	    -56.23738743	    -94.32219225	     -7.10872775	     -1.54389542	      1.06534547	     -1.92368480	      0.00000000	      0.00000000	      0.00000000	      0.00000000	      0.00000000	      0.00000000	      0.00000000	      0.00000000	      0.00000000	      0.00000000	      0.00000000	      0.00000000	      0.00000000	      0.00000000	      0.00000000	      0.00000000	      0.00000000	      0.00000000	      0.00000000	      0.00000000	      0.00000000	      0.00000000	      0.00000000	      0.00000000	      0.00000000	      0.00000000	      0.00000000	      0.00000000	      0.00000000	      0.00000000	      0.00000000	      0.00000000	      0.00000000	      0.00000000	      0.00000000	      0.00000000	      0.00000000	      0.00000000	      0.00000000	      0.00000000	      0.00000000	      0.00000000	      0.00000000	      0.00000000	      0.00000000	      0.00000000	      0.00000000	      0.00000000	     15.74111407	     41.86913775	      0.00000000	      0.00000000	     39.74379428	      0.00000000	      0.00000000	      0.00000000	      0.00000001	      0.00000000	    110.00000000	      0.00000000	      0.00000000
